HIERARCHY
ROOT Hips
{
	OFFSET 0.000000 0.000000 0.000000 
	CHANNELS 6 Xposition Yposition Zposition Yrotation Zrotation Xrotation 
	JOINT Lumbar
	{
		OFFSET 0.000000 0.000000 0.000000 
		CHANNELS 3 Zrotation Xrotation Yrotation
		JOINT Neck
		{
			OFFSET 0.000000 0.445665 0.000000 
			CHANNELS 3 Zrotation Xrotation Yrotation
			End Site
			{
				OFFSET 0.000000 0.227535 0.000000 
			}
		}
		JOINT RightShoulder
		{
			OFFSET 0.019635 0.377685 0.194865 
			CHANNELS 3 Zrotation Xrotation Yrotation
			JOINT RightElbow
			{
				OFFSET 0.000000 -0.243375 0.000000 
				CHANNELS 2 Zrotation Yrotation
				JOINT RightWrist
				{
					OFFSET 0.000000 -0.264825 0.000000 
					CHANNELS 2 Zrotation Xrotation
					End Site
					{
						OFFSET 0.006600 -0.176220 0.000990 
					}
				}
			}
		}
		JOINT LeftShoulder
		{
			OFFSET 0.019635 0.377685 -0.194865 
			CHANNELS 3 Zrotation Xrotation Yrotation
			JOINT LeftElbow
			{
				OFFSET 0.000000 -0.243375 0.000000 
				CHANNELS 2 Zrotation Yrotation
				JOINT LeftWrist
				{
					OFFSET 0.000000 -0.264825 0.000000 
					CHANNELS 2 Zrotation Xrotation
					End Site
					{
						OFFSET 0.006600 -0.176220 -0.000990 
					}
				}
			}
		}
	}
	JOINT RightHip
	{
		OFFSET 0.052140 -0.069960 0.075570 
		CHANNELS 3 Zrotation Xrotation Yrotation
		JOINT RightKnee
		{
			OFFSET 0.000000 -0.402270 0.000000 
			CHANNELS 1 Zrotation
			JOINT RightAnkle
			{
				OFFSET 0.000000 -0.404085 0.000000 
				CHANNELS 3 Zrotation Xrotation Yrotation
				End Site
				{
					OFFSET 0.204105 -0.089430 0.008415 
				}
			}
		}
	}
	JOINT LeftHip
	{
		OFFSET 0.052140 -0.069960 -0.075570 
		CHANNELS 3 Zrotation Xrotation Yrotation
		JOINT LeftKnee
		{
			OFFSET 0.000000 -0.402270 0.000000 
			CHANNELS 1 Zrotation
			JOINT LeftAnkle
			{
				OFFSET 0.000000 -0.404085 0.000000 
				CHANNELS 3 Zrotation Xrotation Yrotation
				End Site
				{
					OFFSET 0.204105 -0.089430 -0.008415 
				}
			}
		}
	}
}
MOTION
Frames: 17
Frame Time: 0.02
-0.10536 0.96419 0.38258 129.2958 0 1.97545 3.12533 -4.6812 5.28068 -6.95295 12.32607 8.81912 71.26092 -59.40048 -15.39086 60.15617 67.70396 31.78205 -5.19242 -3.6982 -0.42911 20.61643 7.53682 -77.97394 -3.64269 0.23165 22.01119 -4.49264 7.5228 -36.65308 2.12056 -2.33979 -0.17776 -2.37346 -9.20919 -2.29647 -13.18697 7.04943 6.98968 11.1128
-0.09834 0.96566 0.38126 128.57402 0 1.36526 2.25469 -5.19883 4.37943 -5.23996 14.54942 8.24082 67.22346 -59.68577 -15.94675 63.78216 67.88069 30.89645 -5.22017 -5.30485 -1.88013 19.0857 7.24509 -77.71535 -3.53494 0.18461 22.11469 -3.74837 7.99036 -36.37987 2.19065 -1.72347 1.40277 -2.26776 -8.34152 -2.2461 -13.07884 7.04419 7.26241 11.73237
-0.09134 0.96679 0.37992 127.84441 0 0.81921 1.50178 -5.69669 3.80047 -4.11925 16.37176 7.30531 62.4474 -59.81468 -17.92934 67.88234 67.96463 29.84252 -5.27041 -6.12423 -2.8852 17.45763 6.92393 -77.20366 -3.44972 0.1114 22.22284 -3.0747 8.65789 -36.25467 2.60391 -1.13451 2.97348 -2.2138 -7.44477 -1.49807 -12.91475 7.11334 7.18628 11.63311
-0.08439 0.96806 0.37854 127.12697 0 0.24856 0.71342 -6.19269 3.03409 -2.80365 18.36306 6.60544 58.03809 -60.01711 -19.28246 71.75086 68.06074 28.87841 -5.31448 -7.24753 -4.09276 15.922 6.62181 -76.81432 -3.35637 0.05375 22.31326 -2.38535 9.19969 -36.0755 2.86554 -0.56279 4.46842 -2.13682 -6.5678 -1.08446 -12.78417 7.14847 7.27964 11.87518
-0.07716 0.96938 0.37736 126.37499 0 -0.34502 -0.15651 -6.73813 2.42565 -1.16178 20.43546 5.59604 53.48957 -60.21673 -20.53473 75.70667 68.28094 27.84981 -5.34248 -8.61346 -5.31831 14.16351 6.29169 -76.39587 -3.25201 -0.0207 22.47083 -1.62875 9.87633 -35.83954 3.11339 0.13979 6.32063 -2.05661 -5.65703 -0.58705 -12.62121 7.18361 7.34005 12.06005
-0.07053 0.97052 0.37575 125.69193 0 -0.87339 -0.8253 -7.17455 1.5713 -0.34664 22.23019 5.14577 49.06201 -60.37968 -22.34324 79.58119 68.22219 26.92323 -5.40836 -9.28029 -6.39232 12.85398 6.01607 -75.97791 -3.17686 -0.06529 22.48804 -1.02944 10.32459 -35.75651 3.46789 0.56128 7.42112 -1.99651 -4.81264 -0.10136 -12.51146 7.23687 7.38091 12.19079
-0.06558 0.97129 0.37301 125.20645 0 -1.24683 -0.98201 -7.31381 -0.04873 -1.64984 23.40343 6.33475 45.11057 -60.50943 -25.34682 83.17247 67.41022 26.2625 -5.5798 -8.21939 -7.17501 12.80362 5.87827 -75.61466 -3.17549 -0.0282 22.12994 -0.83203 10.09034 -36.06802 4.05562 0.21183 6.42455 -1.97143 -4.15191 0.16745 -12.56586 7.32028 7.45581 12.35686
-0.06125 0.97188 0.36981 124.78916 0 -1.55459 -0.93682 -7.34363 -1.92259 -3.76923 24.29903 8.096 41.31605 -60.60092 -28.8613 86.652 66.32311 25.72026 -5.78727 -6.47815 -7.81459 13.21242 5.80023 -75.26169 -3.2033 0.04118 21.62761 -0.79275 9.62201 -36.52618 4.73422 -0.41983 4.6735 -1.96652 -3.56103 0.40161 -12.67484 7.41975 7.52072 12.49091
-0.05664 0.97253 0.36677 124.33734 0 -1.88596 -0.97432 -7.42369 -3.67475 -5.53014 25.28824 9.592 37.47323 -60.6904 -32.14118 90.14437 65.36461 25.16296 -5.974 -5.03975 -8.5062 13.41598 5.70834 -74.90944 -3.21894 0.10072 21.1829 -0.69058 9.26398 -36.91286 5.35599 -0.92253 3.28021 -1.95737 -2.94339 0.65857 -12.75637 7.51307 7.58656 12.63345
-0.052 0.97327 0.36393 123.90136 0 -2.24195 -1.04714 -7.50114 -5.44806 -7.26144 26.40249 11.1032 33.4997 -60.85857 -35.48568 93.81754 64.38347 24.44034 -6.18015 -3.60101 -9.2392 13.5994 5.55974 -74.52629 -3.23066 0.13936 20.77309 -0.55329 8.89451 -37.32831 6.05543 -1.43023 1.82324 -1.92848 -2.30359 0.90893 -12.84734 7.60418 7.65563 12.77722
-0.04758 0.97377 0.36057 123.44725 0 -2.53133 -0.99864 -7.55808 -7.23503 -9.2375 27.19406 12.71601 29.85497 -60.85308 -38.79208 97.07656 63.39077 24.08693 -6.35386 -2.01152 -9.85554 13.93757 5.54314 -74.21241 -3.25726 0.229 20.25467 -0.52545 8.49275 -37.71268 6.61012 -1.99273 0.32088 -1.94573 -1.72692 1.15738 -12.93208 7.70267 7.72019 12.91937
-0.04365 0.97369 0.35598 122.93757 0 -2.65734 -0.67597 -7.58669 -9.05404 -11.71308 27.17461 14.5322 27.0035 -60.39934 -41.91509 99.25656 62.38633 24.77305 -6.43128 -0.17607 -10.2033 14.57102 5.88254 -74.097 -3.31723 0.45638 19.48581 -0.76319 8.04197 -38.00966 6.74186 -2.65009 -1.13222 -2.0776 -1.3081 1.39106 -12.98888 7.81795 7.77502 13.075
-0.03991 0.97337 0.35087 122.40461 0 -2.71794 -0.23652 -7.59811 -10.86763 -14.39874 26.83901 16.4199 24.49704 -59.76778 -44.96517 101.0138 61.38824 25.81886 -6.47439 1.78425 -10.43614 15.34823 6.35157 -74.05139 -3.39127 0.7332 18.61031 -1.10459 7.56953 -38.26319 6.72338 -3.35019 -2.60277 -2.25652 -0.95049 1.62415 -13.03746 7.93973 7.82726 13.2319
-0.03605 0.97314 0.34594 121.87579 0 -2.806 0.15621 -7.61663 -12.65013 -16.97093 26.64307 18.23684 21.88445 -59.20538 -48.0122 102.93832 60.41959 26.66808 -6.53161 3.68614 -10.71314 16.0735 6.75755 -73.96745 -3.45895 0.98436 17.77389 -1.39715 7.11664 -38.5133 6.77246 -4.02262 -4.05919 -2.41862 -0.56461 1.86528 -13.08818 8.05786 7.88227 13.38508
-0.03237 0.97296 0.34123 121.37906 0 -2.90177 0.52875 -7.63482 -14.58892 -19.65113 26.45696 20.23944 19.05665 -58.69509 -51.23528 104.966 59.30797 27.65912 -6.59604 5.61994 -11.02375 16.75958 7.18366 -73.90749 -3.527 1.25012 16.97066 -1.7037 6.6126 -38.86626 6.82744 -4.74055 -5.56946 -2.5617 -0.18295 2.07143 -13.14689 8.17928 7.9302 13.5496
-0.02834 0.97263 0.33594 120.8059 0 -2.96623 0.96906 -7.6504 -16.19011 -22.14157 26.17543 21.85942 16.76501 -58.02909 -54.06185 106.67747 58.49529 28.44126 -6.63724 7.50724 -11.23289 17.55372 7.59711 -73.8192 -3.5979 1.49676 16.0766 -2.00224 6.21564 -38.99298 6.83386 -5.36915 -6.96019 -2.75595 0.19374 2.35242 -13.18707 8.29548 7.99216 13.69177
-0.02346 0.972 0.32921 120.05393 0 -2.96563 1.56082 -7.66894 -16.92358 -24.08474 25.73968 22.44989 15.80233 -57.02354 -55.8542 107.63872 58.5412 28.53644 -6.61901 9.23634 -11.24278 18.62379 7.95066 -73.59127 -3.66746 1.67887 14.94438 -2.26335 6.09891 -38.50308 6.73767 -5.74878 -8.02695 -3.07408 0.57346 2.82463 -13.17259 8.39283 8.09649 13.76933
